<svg xmlns="http://www.w3.org/2000/svg" viewBox="0 0 800 800" width="800" height="800" role="img" aria-label="Ілюстрація: castle">
<defs><linearGradient id="bg" x1="0" y1="0" x2="1" y2="1"><stop offset="0" stop-color="#d7f0ff"/><stop offset="1" stop-color="#8ecae6"/></linearGradient></defs>
<rect width="800" height="800" fill="url(#bg)"/>
<g opacity=".18" fill="#fff"><circle cx="80" cy="90" r="14"/><circle cx="175" cy="120" r="18"/><circle cx="270" cy="150" r="22"/><circle cx="365" cy="90" r="26"/><circle cx="460" cy="120" r="14"/><circle cx="555" cy="150" r="18"/><circle cx="650" cy="90" r="22"/><circle cx="745" cy="120" r="26"/></g>
<ellipse cx="400" cy="660" rx="300" ry="34" fill="#000" opacity=".1"/>
<rect x="200" y="520" width="400" height="80" rx="6" fill="#ff006e"/><rect x="200" y="592" width="400" height="8" rx="4" fill="#d70046"/><rect x="208" y="510" width="24" height="12" rx="4" fill="#ff1987"/><rect x="248" y="510" width="24" height="12" rx="4" fill="#ff1987"/><rect x="288" y="510" width="24" height="12" rx="4" fill="#ff1987"/><rect x="328" y="510" width="24" height="12" rx="4" fill="#ff1987"/><rect x="368" y="510" width="24" height="12" rx="4" fill="#ff1987"/><rect x="408" y="510" width="24" height="12" rx="4" fill="#ff1987"/><rect x="448" y="510" width="24" height="12" rx="4" fill="#ff1987"/><rect x="488" y="510" width="24" height="12" rx="4" fill="#ff1987"/><rect x="528" y="510" width="24" height="12" rx="4" fill="#ff1987"/><rect x="568" y="510" width="24" height="12" rx="4" fill="#ff1987"/><rect x="200" y="440" width="400" height="80" rx="6" fill="#ff006e"/><rect x="200" y="512" width="400" height="8" rx="4" fill="#d70046"/><rect x="208" y="430" width="24" height="12" rx="4" fill="#ff1987"/><rect x="248" y="430" width="24" height="12" rx="4" fill="#ff1987"/><rect x="288" y="430" width="24" height="12" rx="4" fill="#ff1987"/><rect x="328" y="430" width="24" height="12" rx="4" fill="#ff1987"/><rect x="368" y="430" width="24" height="12" rx="4" fill="#ff1987"/><rect x="408" y="430" width="24" height="12" rx="4" fill="#ff1987"/><rect x="448" y="430" width="24" height="12" rx="4" fill="#ff1987"/><rect x="488" y="430" width="24" height="12" rx="4" fill="#ff1987"/><rect x="528" y="430" width="24" height="12" rx="4" fill="#ff1987"/><rect x="568" y="430" width="24" height="12" rx="4" fill="#ff1987"/><rect x="200" y="360" width="100" height="80" rx="6" fill="#3a86ff"/><rect x="200" y="432" width="100" height="8" rx="4" fill="#125ed7"/><rect x="204.66666666666666" y="350" width="24" height="12" rx="4" fill="#539fff"/><rect x="238" y="350" width="24" height="12" rx="4" fill="#539fff"/><rect x="271.33333333333337" y="350" width="24" height="12" rx="4" fill="#539fff"/><rect x="500" y="360" width="100" height="80" rx="6" fill="#3a86ff"/><rect x="500" y="432" width="100" height="8" rx="4" fill="#125ed7"/><rect x="504.66666666666663" y="350" width="24" height="12" rx="4" fill="#539fff"/><rect x="538" y="350" width="24" height="12" rx="4" fill="#539fff"/><rect x="571.3333333333333" y="350" width="24" height="12" rx="4" fill="#539fff"/><rect x="200" y="280" width="100" height="80" rx="6" fill="#3a86ff"/><rect x="200" y="352" width="100" height="8" rx="4" fill="#125ed7"/><rect x="204.66666666666666" y="270" width="24" height="12" rx="4" fill="#539fff"/><rect x="238" y="270" width="24" height="12" rx="4" fill="#539fff"/><rect x="271.33333333333337" y="270" width="24" height="12" rx="4" fill="#539fff"/><rect x="500" y="280" width="100" height="80" rx="6" fill="#3a86ff"/><rect x="500" y="352" width="100" height="8" rx="4" fill="#125ed7"/><rect x="504.66666666666663" y="270" width="24" height="12" rx="4" fill="#539fff"/><rect x="538" y="270" width="24" height="12" rx="4" fill="#539fff"/><rect x="571.3333333333333" y="270" width="24" height="12" rx="4" fill="#539fff"/><rect x="340" y="380" width="120" height="60" rx="6" fill="#3a86ff"/><rect x="340" y="432" width="120" height="8" rx="4" fill="#125ed7"/><rect x="348" y="370" width="24" height="12" rx="4" fill="#539fff"/><rect x="388" y="370" width="24" height="12" rx="4" fill="#539fff"/><rect x="428" y="370" width="24" height="12" rx="4" fill="#539fff"/><path d="M360 600 v-70 a40 40 0 0 1 80 0 v70z" fill="#5a3b1e"/><rect x="245" y="200" width="6" height="80" fill="#333"/><polygon points="251,200 300,220 251,240" fill="#ffbe0b"/>
</svg>
