<svg xmlns="http://www.w3.org/2000/svg" viewBox="0 0 800 800" width="800" height="800" role="img" aria-label="Ілюстрація: house">
<defs><linearGradient id="bg" x1="0" y1="0" x2="1" y2="1"><stop offset="0" stop-color="#fff0e0"/><stop offset="1" stop-color="#ffc49b"/></linearGradient></defs>
<rect width="800" height="800" fill="url(#bg)"/>
<g opacity=".18" fill="#fff"><circle cx="80" cy="90" r="14"/><circle cx="175" cy="120" r="18"/><circle cx="270" cy="150" r="22"/><circle cx="365" cy="90" r="26"/><circle cx="460" cy="120" r="14"/><circle cx="555" cy="150" r="18"/><circle cx="650" cy="90" r="22"/><circle cx="745" cy="120" r="26"/></g>
<ellipse cx="400" cy="660" rx="300" ry="34" fill="#000" opacity=".1"/>
<rect x="220" y="520" width="360" height="80" rx="6" fill="#ff006e"/><rect x="220" y="592" width="360" height="8" rx="4" fill="#d70046"/><rect x="228" y="510" width="24" height="12" rx="4" fill="#ff1987"/><rect x="268" y="510" width="24" height="12" rx="4" fill="#ff1987"/><rect x="308" y="510" width="24" height="12" rx="4" fill="#ff1987"/><rect x="348" y="510" width="24" height="12" rx="4" fill="#ff1987"/><rect x="388" y="510" width="24" height="12" rx="4" fill="#ff1987"/><rect x="428" y="510" width="24" height="12" rx="4" fill="#ff1987"/><rect x="468" y="510" width="24" height="12" rx="4" fill="#ff1987"/><rect x="508" y="510" width="24" height="12" rx="4" fill="#ff1987"/><rect x="548" y="510" width="24" height="12" rx="4" fill="#ff1987"/><rect x="220" y="440" width="360" height="80" rx="6" fill="#ff006e"/><rect x="220" y="512" width="360" height="8" rx="4" fill="#d70046"/><rect x="228" y="430" width="24" height="12" rx="4" fill="#ff1987"/><rect x="268" y="430" width="24" height="12" rx="4" fill="#ff1987"/><rect x="308" y="430" width="24" height="12" rx="4" fill="#ff1987"/><rect x="348" y="430" width="24" height="12" rx="4" fill="#ff1987"/><rect x="388" y="430" width="24" height="12" rx="4" fill="#ff1987"/><rect x="428" y="430" width="24" height="12" rx="4" fill="#ff1987"/><rect x="468" y="430" width="24" height="12" rx="4" fill="#ff1987"/><rect x="508" y="430" width="24" height="12" rx="4" fill="#ff1987"/><rect x="548" y="430" width="24" height="12" rx="4" fill="#ff1987"/><rect x="220" y="360" width="360" height="80" rx="6" fill="#ff006e"/><rect x="220" y="432" width="360" height="8" rx="4" fill="#d70046"/><rect x="228" y="350" width="24" height="12" rx="4" fill="#ff1987"/><rect x="268" y="350" width="24" height="12" rx="4" fill="#ff1987"/><rect x="308" y="350" width="24" height="12" rx="4" fill="#ff1987"/><rect x="348" y="350" width="24" height="12" rx="4" fill="#ff1987"/><rect x="388" y="350" width="24" height="12" rx="4" fill="#ff1987"/><rect x="428" y="350" width="24" height="12" rx="4" fill="#ff1987"/><rect x="468" y="350" width="24" height="12" rx="4" fill="#ff1987"/><rect x="508" y="350" width="24" height="12" rx="4" fill="#ff1987"/><rect x="548" y="350" width="24" height="12" rx="4" fill="#ff1987"/><polygon points="200,360 400,200 600,360" fill="#3a86ff"/><rect x="260" y="400" width="60" height="60" rx="4" fill="#cfeaff" stroke="#2b3a55" stroke-width="4"/><rect x="480" y="400" width="60" height="60" rx="4" fill="#cfeaff" stroke="#2b3a55" stroke-width="4"/><rect x="365" y="480" width="70" height="120" rx="6" fill="#7a4b2a"/><path d="M400 300 c-20 -30 -60 -10 -40 20 l40 35 l40 -35 c20 -30 -20 -50 -40 -20z" fill="#ffbe0b"/>
</svg>
