<svg xmlns="http://www.w3.org/2000/svg" viewBox="0 0 800 800" width="800" height="800" role="img" aria-label="Ілюстрація: stack">
<defs><linearGradient id="bg" x1="0" y1="0" x2="1" y2="1"><stop offset="0" stop-color="#e3f9e5"/><stop offset="1" stop-color="#9ee6b0"/></linearGradient></defs>
<rect width="800" height="800" fill="url(#bg)"/>
<g opacity=".18" fill="#fff"><circle cx="80" cy="90" r="14"/><circle cx="175" cy="120" r="18"/><circle cx="270" cy="150" r="22"/><circle cx="365" cy="90" r="26"/><circle cx="460" cy="120" r="14"/><circle cx="555" cy="150" r="18"/><circle cx="650" cy="90" r="22"/><circle cx="745" cy="120" r="26"/></g>
<ellipse cx="400" cy="660" rx="300" ry="34" fill="#000" opacity=".1"/>
<rect x="200" y="520" width="400" height="100" rx="6" fill="#e63946"/><rect x="200" y="612" width="400" height="8" rx="4" fill="#be111e"/><rect x="208" y="510" width="24" height="12" rx="4" fill="#ff525f"/><rect x="248" y="510" width="24" height="12" rx="4" fill="#ff525f"/><rect x="288" y="510" width="24" height="12" rx="4" fill="#ff525f"/><rect x="328" y="510" width="24" height="12" rx="4" fill="#ff525f"/><rect x="368" y="510" width="24" height="12" rx="4" fill="#ff525f"/><rect x="408" y="510" width="24" height="12" rx="4" fill="#ff525f"/><rect x="448" y="510" width="24" height="12" rx="4" fill="#ff525f"/><rect x="488" y="510" width="24" height="12" rx="4" fill="#ff525f"/><rect x="528" y="510" width="24" height="12" rx="4" fill="#ff525f"/><rect x="568" y="510" width="24" height="12" rx="4" fill="#ff525f"/><rect x="260" y="410" width="280" height="100" rx="6" fill="#457b9d"/><rect x="260" y="502" width="280" height="8" rx="4" fill="#1d5375"/><rect x="268" y="400" width="24" height="12" rx="4" fill="#5e94b6"/><rect x="308" y="400" width="24" height="12" rx="4" fill="#5e94b6"/><rect x="348" y="400" width="24" height="12" rx="4" fill="#5e94b6"/><rect x="388" y="400" width="24" height="12" rx="4" fill="#5e94b6"/><rect x="428" y="400" width="24" height="12" rx="4" fill="#5e94b6"/><rect x="468" y="400" width="24" height="12" rx="4" fill="#5e94b6"/><rect x="508" y="400" width="24" height="12" rx="4" fill="#5e94b6"/><rect x="300" y="300" width="200" height="100" rx="6" fill="#ffb703"/><rect x="300" y="392" width="200" height="8" rx="4" fill="#d78f00"/><rect x="308" y="290" width="24" height="12" rx="4" fill="#ffd01c"/><rect x="348" y="290" width="24" height="12" rx="4" fill="#ffd01c"/><rect x="388" y="290" width="24" height="12" rx="4" fill="#ffd01c"/><rect x="428" y="290" width="24" height="12" rx="4" fill="#ffd01c"/><rect x="468" y="290" width="24" height="12" rx="4" fill="#ffd01c"/><rect x="340" y="200" width="120" height="90" rx="6" fill="#e63946"/><rect x="340" y="282" width="120" height="8" rx="4" fill="#be111e"/><rect x="348" y="190" width="24" height="12" rx="4" fill="#ff525f"/><rect x="388" y="190" width="24" height="12" rx="4" fill="#ff525f"/><rect x="428" y="190" width="24" height="12" rx="4" fill="#ff525f"/>
</svg>
